<svg id="SvgjsSvg1006" width="1038.1875" height="2119.28125" xmlns="http://www.w3.org/2000/svg" version="1.1" xmlns:xlink="http://www.w3.org/1999/xlink" xmlns:svgjs="http://svgjs.com/svgjs"><defs id="SvgjsDefs1007"><marker id="SvgjsMarker1130" markerWidth="16" markerHeight="12" refX="16" refY="6" viewBox="0 0 16 12" orient="auto" markerUnits="userSpaceOnUse" stroke-dasharray="0,0"><path id="SvgjsPath1131" d="M0,2 L14,6 L0,11 L0,2" fill="#323232" stroke="#323232" stroke-width="2"></path></marker><marker id="SvgjsMarker1140" markerWidth="16" markerHeight="12" refX="16" refY="6" viewBox="0 0 16 12" orient="auto" markerUnits="userSpaceOnUse" stroke-dasharray="0,0"><path id="SvgjsPath1141" d="M0,2 L14,6 L0,11 L0,2" fill="#323232" stroke="#323232" stroke-width="2"></path></marker><marker id="SvgjsMarker1154" markerWidth="16" markerHeight="12" refX="16" refY="6" viewBox="0 0 16 12" orient="auto" markerUnits="userSpaceOnUse" stroke-dasharray="0,0"><path id="SvgjsPath1155" d="M0,2 L14,6 L0,11 L0,2" fill="#323232" stroke="#323232" stroke-width="2"></path></marker><marker id="SvgjsMarker1164" markerWidth="16" markerHeight="12" refX="16" refY="6" viewBox="0 0 16 12" orient="auto" markerUnits="userSpaceOnUse" stroke-dasharray="0,0"><path id="SvgjsPath1165" d="M0,2 L14,6 L0,11 L0,2" fill="#323232" stroke="#323232" stroke-width="2"></path></marker><marker id="SvgjsMarker1168" markerWidth="16" markerHeight="12" refX="16" refY="6" viewBox="0 0 16 12" orient="auto" markerUnits="userSpaceOnUse" stroke-dasharray="0,0"><path id="SvgjsPath1169" d="M0,2 L14,6 L0,11 L0,2" fill="#323232" stroke="#323232" stroke-width="2"></path></marker><marker id="SvgjsMarker1178" markerWidth="16" markerHeight="12" refX="16" refY="6" viewBox="0 0 16 12" orient="auto" markerUnits="userSpaceOnUse" stroke-dasharray="0,0"><path id="SvgjsPath1179" d="M0,2 L14,6 L0,11 L0,2" fill="#323232" stroke="#323232" stroke-width="2"></path></marker><marker id="SvgjsMarker1188" markerWidth="16" markerHeight="12" refX="16" refY="6" viewBox="0 0 16 12" orient="auto" markerUnits="userSpaceOnUse" stroke-dasharray="0,0"><path id="SvgjsPath1189" d="M0,2 L14,6 L0,11 L0,2" fill="#323232" stroke="#323232" stroke-width="2"></path></marker><marker id="SvgjsMarker1198" markerWidth="16" markerHeight="12" refX="16" refY="6" viewBox="0 0 16 12" orient="auto" markerUnits="userSpaceOnUse" stroke-dasharray="0,0"><path id="SvgjsPath1199" d="M0,2 L14,6 L0,11 L0,2" fill="#323232" stroke="#323232" stroke-width="2"></path></marker><marker id="SvgjsMarker1208" markerWidth="16" markerHeight="12" refX="16" refY="6" viewBox="0 0 16 12" orient="auto" markerUnits="userSpaceOnUse" stroke-dasharray="0,0"><path id="SvgjsPath1209" d="M0,2 L14,6 L0,11 L0,2" fill="#323232" stroke="#323232" stroke-width="2"></path></marker><marker id="SvgjsMarker1218" markerWidth="16" markerHeight="12" refX="16" refY="6" viewBox="0 0 16 12" orient="auto" markerUnits="userSpaceOnUse" stroke-dasharray="0,0"><path id="SvgjsPath1219" d="M0,2 L14,6 L0,11 L0,2" fill="#323232" stroke="#323232" stroke-width="2"></path></marker><marker id="SvgjsMarker1228" markerWidth="16" markerHeight="12" refX="16" refY="6" viewBox="0 0 16 12" orient="auto" markerUnits="userSpaceOnUse" stroke-dasharray="0,0"><path id="SvgjsPath1229" d="M0,2 L14,6 L0,11 L0,2" fill="#323232" stroke="#323232" stroke-width="2"></path></marker><marker id="SvgjsMarker1238" markerWidth="16" markerHeight="12" refX="16" refY="6" viewBox="0 0 16 12" orient="auto" markerUnits="userSpaceOnUse" stroke-dasharray="0,0"><path id="SvgjsPath1239" d="M0,2 L14,6 L0,11 L0,2" fill="#323232" stroke="#323232" stroke-width="2"></path></marker><marker id="SvgjsMarker1254" markerWidth="16" markerHeight="12" refX="16" refY="6" viewBox="0 0 16 12" orient="auto" markerUnits="userSpaceOnUse" stroke-dasharray="0,0"><path id="SvgjsPath1255" d="M0,2 L14,6 L0,11 L0,2" fill="#323232" stroke="#323232" stroke-width="2"></path></marker><marker id="SvgjsMarker1258" markerWidth="16" markerHeight="12" refX="16" refY="6" viewBox="0 0 16 12" orient="auto" markerUnits="userSpaceOnUse" stroke-dasharray="0,0"><path id="SvgjsPath1259" d="M0,2 L14,6 L0,11 L0,2" fill="#323232" stroke="#323232" stroke-width="2"></path></marker><marker id="SvgjsMarker1268" markerWidth="16" markerHeight="12" refX="16" refY="6" viewBox="0 0 16 12" orient="auto" markerUnits="userSpaceOnUse" stroke-dasharray="0,0"><path id="SvgjsPath1269" d="M0,2 L14,6 L0,11 L0,2" fill="#323232" stroke="#323232" stroke-width="2"></path></marker><marker id="SvgjsMarker1272" markerWidth="16" markerHeight="12" refX="16" refY="6" viewBox="0 0 16 12" orient="auto" markerUnits="userSpaceOnUse" stroke-dasharray="0,0"><path id="SvgjsPath1273" d="M0,2 L14,6 L0,11 L0,2" fill="#323232" stroke="#323232" stroke-width="2"></path></marker><marker id="SvgjsMarker1282" markerWidth="16" markerHeight="12" refX="16" refY="6" viewBox="0 0 16 12" orient="auto" markerUnits="userSpaceOnUse" stroke-dasharray="0,0"><path id="SvgjsPath1283" d="M0,2 L14,6 L0,11 L0,2" fill="#323232" stroke="#323232" stroke-width="2"></path></marker><marker id="SvgjsMarker1292" markerWidth="16" markerHeight="12" refX="16" refY="6" viewBox="0 0 16 12" orient="auto" markerUnits="userSpaceOnUse" stroke-dasharray="0,0"><path id="SvgjsPath1293" d="M0,2 L14,6 L0,11 L0,2" fill="#323232" stroke="#323232" stroke-width="2"></path></marker><marker id="SvgjsMarker1302" markerWidth="16" markerHeight="12" refX="16" refY="6" viewBox="0 0 16 12" orient="auto" markerUnits="userSpaceOnUse" stroke-dasharray="0,0"><path id="SvgjsPath1303" d="M0,2 L14,6 L0,11 L0,2" fill="#323232" stroke="#323232" stroke-width="2"></path></marker><marker id="SvgjsMarker1312" markerWidth="16" markerHeight="12" refX="16" refY="6" viewBox="0 0 16 12" orient="auto" markerUnits="userSpaceOnUse" stroke-dasharray="0,0"><path id="SvgjsPath1313" d="M0,2 L14,6 L0,11 L0,2" fill="#323232" stroke="#323232" stroke-width="2"></path></marker><marker id="SvgjsMarker1322" markerWidth="16" markerHeight="12" refX="16" refY="6" viewBox="0 0 16 12" orient="auto" markerUnits="userSpaceOnUse" stroke-dasharray="0,0"><path id="SvgjsPath1323" d="M0,2 L14,6 L0,11 L0,2" fill="#323232" stroke="#323232" stroke-width="2"></path></marker><marker id="SvgjsMarker1326" markerWidth="16" markerHeight="12" refX="16" refY="6" viewBox="0 0 16 12" orient="auto" markerUnits="userSpaceOnUse" stroke-dasharray="0,0"><path id="SvgjsPath1327" d="M0,2 L14,6 L0,11 L0,2" fill="#323232" stroke="#323232" stroke-width="2"></path></marker></defs><g id="SvgjsG1008" transform="translate(25.007675438596493,25.010979339796705)"><path id="SvgjsPath1009" d="M 0 0L 640 0L 640 2069.526315789466L 0 2069.526315789466Z" stroke="rgba(50,50,50,1)" stroke-width="2" fill="none"></path><path id="SvgjsPath1010" d="M 0 0L 40 0L 40 2069.526315789466L 0 2069.526315789466Z" stroke="rgba(50,50,50,1)" stroke-width="2" fill-opacity="1" fill="#ffffff"></path><g id="SvgjsG1011"><text id="SvgjsText1012" font-family="微软雅黑" text-anchor="middle" font-size="16px" width="2050px" fill="#323232" font-weight="400" align="middle" lineHeight="125%" anchor="middle" family="微软雅黑" size="16px" weight="400" font-style="" opacity="1" y="8" transform="rotate(270)"><tspan id="SvgjsTspan1013" dy="20" x="-1034.526315789466"><tspan id="SvgjsTspan1014" style="text-decoration:;">DispatchServlet</tspan></tspan></text></g></g><g id="SvgjsG1015" transform="translate(65.00767543859646,25.010979339796705)"><path id="SvgjsPath1016" d="M 0 0L 600 0L 600 88.0000000000002L 0 88.0000000000002Z" stroke="rgba(50,50,50,1)" stroke-width="2" fill="none"></path><path id="SvgjsPath1017" d="M 0 0L 30 0L 30 88.0000000000002L 0 88.0000000000002Z" stroke="rgba(50,50,50,1)" stroke-width="2" fill-opacity="1" fill="#ffffff"></path><g id="SvgjsG1018"><text id="SvgjsText1019" font-family="微软雅黑" text-anchor="middle" font-size="13px" width="69px" fill="#323232" font-weight="400" align="middle" lineHeight="125%" anchor="middle" family="微软雅黑" size="13px" weight="400" font-style="" opacity="1" y="5.375" transform="rotate(270)"><tspan id="SvgjsTspan1020" dy="16" x="-43.5000000000002"><tspan id="SvgjsTspan1021" style="text-decoration:;">Request</tspan></tspan></text></g></g><g id="SvgjsG1022" transform="translate(65.00767543859646,113.01097933979696)"><path id="SvgjsPath1023" d="M 0 0L 600 0L 600 153L 0 153Z" stroke="rgba(50,50,50,1)" stroke-width="2" fill="none"></path><path id="SvgjsPath1024" d="M 0 0L 30 0L 30 153L 0 153Z" stroke="rgba(50,50,50,1)" stroke-width="2" fill-opacity="1" fill="#ffffff"></path><g id="SvgjsG1025"><text id="SvgjsText1026" font-family="微软雅黑" text-anchor="middle" font-size="13px" width="133px" fill="#323232" font-weight="400" align="middle" lineHeight="125%" anchor="middle" family="微软雅黑" size="13px" weight="400" font-style="" opacity="1" y="5.375" transform="rotate(270)"><tspan id="SvgjsTspan1027" dy="16" x="-76.5"><tspan id="SvgjsTspan1028" style="text-decoration:;">MultipartResolver</tspan></tspan></text></g></g><g id="SvgjsG1029" transform="translate(65.00767543859646,266.0109793397965)"><path id="SvgjsPath1030" d="M 0 0L 600 0L 600 143L 0 143Z" stroke="rgba(50,50,50,1)" stroke-width="2" fill="none"></path><path id="SvgjsPath1031" d="M 0 0L 30 0L 30 143L 0 143Z" stroke="rgba(50,50,50,1)" stroke-width="2" fill-opacity="1" fill="#ffffff"></path><g id="SvgjsG1032"><text id="SvgjsText1033" font-family="微软雅黑" text-anchor="middle" font-size="13px" width="123px" fill="#323232" font-weight="400" align="middle" lineHeight="125%" anchor="middle" family="微软雅黑" size="13px" weight="400" font-style="" opacity="1" y="5.375" transform="rotate(270)"><tspan id="SvgjsTspan1034" dy="16" x="-71.5"><tspan id="SvgjsTspan1035" style="text-decoration:;">HandlerMapping</tspan></tspan></text></g></g><g id="SvgjsG1036" transform="translate(65.00767543859646,409.01097933979656)"><path id="SvgjsPath1037" d="M 0 0L 600 0L 600 140L 0 140Z" stroke="rgba(50,50,50,1)" stroke-width="2" fill="none"></path><path id="SvgjsPath1038" d="M 0 0L 30 0L 30 140L 0 140Z" stroke="rgba(50,50,50,1)" stroke-width="2" fill-opacity="1" fill="#ffffff"></path><g id="SvgjsG1039"><text id="SvgjsText1040" font-family="微软雅黑" text-anchor="middle" font-size="13px" width="120px" fill="#323232" font-weight="400" align="middle" lineHeight="125%" anchor="middle" family="微软雅黑" size="13px" weight="400" font-style="" opacity="1" y="5.375" transform="rotate(270)"><tspan id="SvgjsTspan1041" dy="16" x="-70"><tspan id="SvgjsTspan1042" style="text-decoration:;">HandlerInterceptor</tspan></tspan></text></g></g><g id="SvgjsG1043" transform="translate(65.00767543859646,549.0109793397975)"><path id="SvgjsPath1044" d="M 0 0L 600 0L 600 139.66666666666583L 0 139.66666666666583Z" stroke="rgba(50,50,50,1)" stroke-width="2" fill="none"></path><path id="SvgjsPath1045" d="M 0 0L 30 0L 30 139.66666666666583L 0 139.66666666666583Z" stroke="rgba(50,50,50,1)" stroke-width="2" fill-opacity="1" fill="#ffffff"></path><g id="SvgjsG1046"><text id="SvgjsText1047" font-family="微软雅黑" text-anchor="middle" font-size="13px" width="120px" fill="#323232" font-weight="400" align="middle" lineHeight="125%" anchor="middle" family="微软雅黑" size="13px" weight="400" font-style="" opacity="1" y="5.375" transform="rotate(270)"><tspan id="SvgjsTspan1048" dy="16" x="-69.66666666666583"><tspan id="SvgjsTspan1049" style="text-decoration:;">HandlerAdapter</tspan></tspan></text></g></g><g id="SvgjsG1050" transform="translate(65.00767543859652,688.6776460064633)"><path id="SvgjsPath1051" d="M 0 0L 600 0L 600 150.66666666666686L 0 150.66666666666686Z" stroke="rgba(50,50,50,1)" stroke-width="2" fill="none"></path><path id="SvgjsPath1052" d="M 0 0L 30 0L 30 150.66666666666686L 0 150.66666666666686Z" stroke="rgba(50,50,50,1)" stroke-width="2" fill-opacity="1" fill="#ffffff"></path><g id="SvgjsG1053"><text id="SvgjsText1054" font-family="微软雅黑" text-anchor="middle" font-size="13px" width="131px" fill="#323232" font-weight="400" align="middle" lineHeight="125%" anchor="middle" family="微软雅黑" size="13px" weight="400" font-style="" opacity="1" y="-2.625" transform="rotate(270)"><tspan id="SvgjsTspan1055" dy="16" x="-75.16666666666686"><tspan id="SvgjsTspan1056" style="text-decoration:;">RequestToViewName</tspan></tspan><tspan id="SvgjsTspan1057" dy="16" x="-75.16666666666686"><tspan id="SvgjsTspan1058" style="text-decoration:;">Translator</tspan></tspan></text></g></g><g id="SvgjsG1059" transform="translate(65.00767543859646,839.34431267313)"><path id="SvgjsPath1060" d="M 0 0L 600 0L 600 135.99999999999966L 0 135.99999999999966Z" stroke="rgba(50,50,50,1)" stroke-width="2" fill="none"></path><path id="SvgjsPath1061" d="M 0 0L 30 0L 30 135.99999999999966L 0 135.99999999999966Z" stroke="rgba(50,50,50,1)" stroke-width="2" fill-opacity="1" fill="#ffffff"></path><g id="SvgjsG1062"><text id="SvgjsText1063" font-family="微软雅黑" text-anchor="middle" font-size="13px" width="116px" fill="#323232" font-weight="400" align="middle" lineHeight="125%" anchor="middle" family="微软雅黑" size="13px" weight="400" font-style="" opacity="1" y="5.375" transform="rotate(270)"><tspan id="SvgjsTspan1064" dy="16" x="-67.99999999999966"><tspan id="SvgjsTspan1065" style="text-decoration:;">HandlerInterceptor</tspan></tspan></text></g></g><g id="SvgjsG1066" transform="translate(65.00767543859646,975.3443126731278)"><path id="SvgjsPath1067" d="M 0 0L 600 0L 600 184.66666666667243L 0 184.66666666667243Z" stroke="rgba(50,50,50,1)" stroke-width="2" fill="none"></path><path id="SvgjsPath1068" d="M 0 0L 30 0L 30 184.66666666667243L 0 184.66666666667243Z" stroke="rgba(50,50,50,1)" stroke-width="2" fill-opacity="1" fill="#ffffff"></path><g id="SvgjsG1069"><text id="SvgjsText1070" font-family="微软雅黑" text-anchor="middle" font-size="13px" width="165px" fill="#323232" font-weight="400" align="middle" lineHeight="125%" anchor="middle" family="微软雅黑" size="13px" weight="400" font-style="" opacity="1" y="5.375" transform="rotate(270)"><tspan id="SvgjsTspan1071" dy="16" x="-92.16666666667243"><tspan id="SvgjsTspan1072" style="text-decoration:;">HandlerExceptionResolver</tspan></tspan></text></g></g><g id="SvgjsG1073" transform="translate(65.00767543859646,1160.0109793398003)"><path id="SvgjsPath1074" d="M 0 0L 600 0L 600 114.44444444443207L 0 114.44444444443207Z" stroke="rgba(50,50,50,1)" stroke-width="2" fill="none"></path><path id="SvgjsPath1075" d="M 0 0L 30 0L 30 114.44444444443207L 0 114.44444444443207Z" stroke="rgba(50,50,50,1)" stroke-width="2" fill-opacity="1" fill="#ffffff"></path><g id="SvgjsG1076"><text id="SvgjsText1077" font-family="微软雅黑" text-anchor="middle" font-size="13px" width="95px" fill="#323232" font-weight="400" align="middle" lineHeight="125%" anchor="middle" family="微软雅黑" size="13px" weight="400" font-style="" opacity="1" y="5.375" transform="rotate(270)"><tspan id="SvgjsTspan1078" dy="16" x="-56.944444444432065"><tspan id="SvgjsTspan1079" style="text-decoration:;">LocaleResolver</tspan></tspan></text></g></g><g id="SvgjsG1080" transform="translate(65.00767543859646,1274.4554237842324)"><path id="SvgjsPath1081" d="M 0 0L 600 0L 600 125.7251461988435L 0 125.7251461988435Z" stroke="rgba(50,50,50,1)" stroke-width="2" fill="none"></path><path id="SvgjsPath1082" d="M 0 0L 30 0L 30 125.7251461988435L 0 125.7251461988435Z" stroke="rgba(50,50,50,1)" stroke-width="2" fill-opacity="1" fill="#ffffff"></path><g id="SvgjsG1083"><text id="SvgjsText1084" font-family="微软雅黑" text-anchor="middle" font-size="13px" width="106px" fill="#323232" font-weight="400" align="middle" lineHeight="125%" anchor="middle" family="微软雅黑" size="13px" weight="400" font-style="" opacity="1" y="5.375" transform="rotate(270)"><tspan id="SvgjsTspan1085" dy="16" x="-62.725146198843504"><tspan id="SvgjsTspan1086" style="text-decoration:;">ViewResolver</tspan></tspan></text></g></g><g id="SvgjsG1087" transform="translate(65.00767543859646,1400.1805699830759)"><path id="SvgjsPath1088" d="M 0 0L 600 0L 600 132.71345029238046L 0 132.71345029238046Z" stroke="rgba(50,50,50,1)" stroke-width="2" fill="none"></path><path id="SvgjsPath1089" d="M 0 0L 30 0L 30 132.71345029238046L 0 132.71345029238046Z" stroke="rgba(50,50,50,1)" stroke-width="2" fill-opacity="1" fill="#ffffff"></path><g id="SvgjsG1090"><text id="SvgjsText1091" font-family="微软雅黑" text-anchor="middle" font-size="13px" width="113px" fill="#323232" font-weight="400" align="middle" lineHeight="125%" anchor="middle" family="微软雅黑" size="13px" weight="400" font-style="" opacity="1" y="5.375" transform="rotate(270)"><tspan id="SvgjsTspan1092" dy="16" x="-66.21345029238046"><tspan id="SvgjsTspan1093" style="text-decoration:;">View</tspan></tspan></text></g></g><g id="SvgjsG1094" transform="translate(65.00767543859646,1532.8940202754563)"><path id="SvgjsPath1095" d="M 0 0L 600 0L 600 135.60818713451522L 0 135.60818713451522Z" stroke="rgba(50,50,50,1)" stroke-width="2" fill="none"></path><path id="SvgjsPath1096" d="M 0 0L 30 0L 30 135.60818713451522L 0 135.60818713451522Z" stroke="rgba(50,50,50,1)" stroke-width="2" fill-opacity="1" fill="#ffffff"></path><g id="SvgjsG1097"><text id="SvgjsText1098" font-family="微软雅黑" text-anchor="middle" font-size="13px" width="116px" fill="#323232" font-weight="400" align="middle" lineHeight="125%" anchor="middle" family="微软雅黑" size="13px" weight="400" font-style="" opacity="1" y="5.375" transform="rotate(270)"><tspan id="SvgjsTspan1099" dy="16" x="-67.60818713451522"><tspan id="SvgjsTspan1100" style="text-decoration:;">HandlerInterceptor</tspan></tspan></text></g></g><g id="SvgjsG1101" transform="translate(65.00767543859646,1668.5022074099716)"><path id="SvgjsPath1102" d="M 0 0L 600 0L 600 171.05263157894728L 0 171.05263157894728Z" stroke="rgba(50,50,50,1)" stroke-width="2" fill="none"></path><path id="SvgjsPath1103" d="M 0 0L 30 0L 30 171.05263157894728L 0 171.05263157894728Z" stroke="rgba(50,50,50,1)" stroke-width="2" fill-opacity="1" fill="#ffffff"></path><g id="SvgjsG1104"><text id="SvgjsText1105" font-family="微软雅黑" text-anchor="middle" font-size="13px" width="152px" fill="#323232" font-weight="400" align="middle" lineHeight="125%" anchor="middle" family="微软雅黑" size="13px" weight="400" font-style="" opacity="1" y="5.375" transform="rotate(270)"><tspan id="SvgjsTspan1106" dy="16" x="-85.05263157894728"><tspan id="SvgjsTspan1107" style="text-decoration:;">AsyncHandlerInterceptor</tspan></tspan></text></g></g><g id="SvgjsG1108" transform="translate(65.00767543859646,1839.5548389889225)"><path id="SvgjsPath1109" d="M 0 0L 600 0L 600 154.73684210525948L 0 154.73684210525948Z" stroke="rgba(50,50,50,1)" stroke-width="2" fill="none"></path><path id="SvgjsPath1110" d="M 0 0L 30 0L 30 154.73684210525948L 0 154.73684210525948Z" stroke="rgba(50,50,50,1)" stroke-width="2" fill-opacity="1" fill="#ffffff"></path><g id="SvgjsG1111"><text id="SvgjsText1112" font-family="微软雅黑" text-anchor="middle" font-size="13px" width="135px" fill="#323232" font-weight="400" align="middle" lineHeight="125%" anchor="middle" family="微软雅黑" size="13px" weight="400" font-style="" opacity="1" y="5.375" transform="rotate(270)"><tspan id="SvgjsTspan1113" dy="16" x="-77.23684210525948"><tspan id="SvgjsTspan1114" style="text-decoration:;">MultipartResolver</tspan></tspan></text></g></g><g id="SvgjsG1115" transform="translate(65.00767543859648,1994.291681094182)"><path id="SvgjsPath1116" d="M 0 0L 600 0L 600 100.2456140350846L 0 100.2456140350846Z" stroke="rgba(50,50,50,1)" stroke-width="2" fill="none"></path><path id="SvgjsPath1117" d="M 0 0L 30 0L 30 100.2456140350846L 0 100.2456140350846Z" stroke="rgba(50,50,50,1)" stroke-width="2" fill-opacity="1" fill="#ffffff"></path><g id="SvgjsG1118"><text id="SvgjsText1119" font-family="微软雅黑" text-anchor="middle" font-size="13px" width="81px" fill="#323232" font-weight="400" align="middle" lineHeight="125%" anchor="middle" family="微软雅黑" size="13px" weight="400" font-style="" opacity="1" y="5.375" transform="rotate(270)"><tspan id="SvgjsTspan1120" dy="16" x="-49.7456140350846"><tspan id="SvgjsTspan1121" style="text-decoration:;">Response</tspan></tspan></text></g></g><g id="SvgjsG1122" transform="translate(303.39656432748524,43.34431267313013)"><path id="SvgjsPath1123" d="M 16.666666666666668 0L 83.33333333333333 0C 105.55555555555556 0 105.55555555555556 50 83.33333333333333 50L 16.666666666666668 50C -5.555555555555556 50 -5.555555555555556 0 16.666666666666668 0Z" stroke="rgba(50,50,50,1)" stroke-width="2" fill-opacity="1" fill="#ffffff"></path><g id="SvgjsG1124"><text id="SvgjsText1125" font-family="微软雅黑" text-anchor="middle" font-size="13px" width="80px" fill="#323232" font-weight="400" align="middle" lineHeight="125%" anchor="middle" family="微软雅黑" size="13px" weight="400" font-style="" opacity="1" y="15.375" transform="rotate(0)"><tspan id="SvgjsTspan1126" dy="16" x="50"><tspan id="SvgjsTspan1127" style="text-decoration:;">Request</tspan></tspan></text></g></g><g id="SvgjsG1128"><path id="SvgjsPath1129" d="M353.39656432748524 93.34431267313016L353.39656432748524 122.67764600646353L206.6743421052632 122.67764600646353L206.6743421052632 152.0109793397969" stroke="#323232" stroke-width="2" fill="none" marker-end="url(#SvgjsMarker1130)"></path></g><g id="SvgjsG1132" transform="translate(124.67434210526312,152.0109793397969)"><path id="SvgjsPath1133" d="M 0 37.5L 82 0L 164 37.5L 82 75L 0 37.5Z" stroke="rgba(50,50,50,1)" stroke-width="2" fill-opacity="1" fill="#ffffff"></path><g id="SvgjsG1134"><text id="SvgjsText1135" font-family="微软雅黑" text-anchor="middle" font-size="13px" width="144px" fill="#323232" font-weight="400" align="middle" lineHeight="125%" anchor="middle" family="微软雅黑" size="13px" weight="400" font-style="" opacity="1" y="27.875" transform="rotate(0)"><tspan id="SvgjsTspan1136" dy="16" x="82"><tspan id="SvgjsTspan1137" style="text-decoration:;">isMultipart(request)</tspan></tspan></text></g></g><g id="SvgjsG1138"><path id="SvgjsPath1139" d="M288.6743421052631 189.51097933979676L332.6743421052631 189.51097933979676L332.6743421052631 189.51097933979673L376.67434210526307 189.51097933979673" stroke="#323232" stroke-width="2" fill="none" marker-end="url(#SvgjsMarker1140)"></path><rect id="SvgjsRect1142" width="9" height="16" x="328.1743421052631" y="181.51097933979676" fill="#ffffff"></rect><text id="SvgjsText1143" font-family="微软雅黑" text-anchor="middle" font-size="13px" width="9px" fill="#323232" font-weight="400" align="top" lineHeight="16px" anchor="middle" family="微软雅黑" size="13px" weight="400" font-style="" opacity="1" y="179.88597933979676" transform="rotate(0)"><tspan id="SvgjsTspan1144" dy="16" x="332.6743421052631"><tspan id="SvgjsTspan1145" style="text-decoration:;">Y</tspan></tspan></text></g><g id="SvgjsG1146" transform="translate(376.67434210526307,152.01097933979688)"><path id="SvgjsPath1147" d="M 0 0L 174 0L 174 75L 0 75Z" stroke="rgba(50,50,50,1)" stroke-width="2" fill-opacity="1" fill="#ffffff"></path><g id="SvgjsG1148"><text id="SvgjsText1149" font-family="微软雅黑" text-anchor="middle" font-size="13px" width="154px" fill="#323232" font-weight="400" align="middle" lineHeight="125%" anchor="middle" family="微软雅黑" size="13px" weight="400" font-style="" opacity="1" y="27.875" transform="rotate(0)"><tspan id="SvgjsTspan1150" dy="16" x="87"><tspan id="SvgjsTspan1151" style="text-decoration:;">resolveMultipart(request)</tspan></tspan></text></g></g><g id="SvgjsG1152"><path id="SvgjsPath1153" d="M206.6743421052632 227.01097933979656L206.6743421052632 247.51097933979656L353.5076754385966 247.51097933979656L353.5076754385966 304.0109793397965" stroke="#323232" stroke-width="2" fill="none" marker-end="url(#SvgjsMarker1154)"></path></g><g id="SvgjsG1156" transform="translate(154.50767543859635,304.0109793397965)"><path id="SvgjsPath1157" d="M 0 0L 398 0L 398 69L 0 69Z" stroke="rgba(50,50,50,1)" stroke-width="2" fill-opacity="1" fill="#ffffff"></path><g id="SvgjsG1158"><text id="SvgjsText1159" font-family="微软雅黑" text-anchor="middle" font-size="13px" width="378px" fill="#323232" font-weight="400" align="middle" lineHeight="125%" anchor="middle" family="微软雅黑" size="13px" weight="400" font-style="" opacity="1" y="24.875" transform="rotate(0)"><tspan id="SvgjsTspan1160" dy="16" x="199"><tspan id="SvgjsTspan1161" style="text-decoration:;">HandlerExecutionChain = getHandler(request)</tspan></tspan></text></g></g><g id="SvgjsG1162"><path id="SvgjsPath1163" d="M463.6743421052629 227.01097933979653L463.6743421052629 247.51097933979656L353.5076754385966 247.51097933979656L353.5076754385966 304.0109793397965" stroke="#323232" stroke-width="2" fill="none" marker-end="url(#SvgjsMarker1164)"></path></g><g id="SvgjsG1166"><path id="SvgjsPath1167" d="M353.5076754385966 373.0109793397965L353.5076754385966 409.01097933979656L354.0076754385966 409.01097933979656L354.0076754385966 445.01097933979685" stroke="#323232" stroke-width="2" fill="none" marker-end="url(#SvgjsMarker1168)"></path></g><g id="SvgjsG1170" transform="translate(205.50767543859635,445.01097933979685)"><path id="SvgjsPath1171" d="M 0 0L 295 0L 295 68L 0 68Z" stroke="rgba(50,50,50,1)" stroke-width="2" fill-opacity="1" fill="#ffffff"></path><g id="SvgjsG1172"><text id="SvgjsText1173" font-family="微软雅黑" text-anchor="middle" font-size="13px" width="275px" fill="#323232" font-weight="400" align="middle" lineHeight="125%" anchor="middle" family="微软雅黑" size="13px" weight="400" font-style="" opacity="1" y="24.375" transform="rotate(0)"><tspan id="SvgjsTspan1174" dy="16" x="147.5"><tspan id="SvgjsTspan1175" style="text-decoration:;">preHandle(request, response,handler)</tspan></tspan></text></g></g><g id="SvgjsG1176"><path id="SvgjsPath1177" d="M353.0076754385966 513.0109793397971L353.0076754385966 548.677646006464L352.84100877192986 548.677646006464L352.84100877192986 584.3443126731304" stroke="#323232" stroke-width="2" fill="none" marker-end="url(#SvgjsMarker1178)"></path></g><g id="SvgjsG1180" transform="translate(196.34100877192972,584.3443126731304)"><path id="SvgjsPath1181" d="M 0 0L 313 0L 313 69L 0 69Z" stroke="rgba(50,50,50,1)" stroke-width="2" fill-opacity="1" fill="#ffffff"></path><g id="SvgjsG1182"><text id="SvgjsText1183" font-family="微软雅黑" text-anchor="middle" font-size="13px" width="293px" fill="#323232" font-weight="400" align="middle" lineHeight="125%" anchor="middle" family="微软雅黑" size="13px" weight="400" font-style="" opacity="1" y="24.875" transform="rotate(0)"><tspan id="SvgjsTspan1184" dy="16" x="156.5"><tspan id="SvgjsTspan1185" style="text-decoration:;">mv = handle(request, response, handler)</tspan></tspan></text></g></g><g id="SvgjsG1186"><path id="SvgjsPath1187" d="M352.84100877192986 653.3443126731304L352.84100877192986 685.9671196906745L352.00767543859655 685.9671196906745L352.00767543859655 718.5899267082186" stroke="#323232" stroke-width="2" fill="none" marker-end="url(#SvgjsMarker1188)"></path></g><g id="SvgjsG1190" transform="translate(261.0076754385965,718.5899267082186)"><path id="SvgjsPath1191" d="M 0 0L 182 0L 182 68L 0 68Z" stroke="rgba(50,50,50,1)" stroke-width="2" fill-opacity="1" fill="#ffffff"></path><g id="SvgjsG1192"><text id="SvgjsText1193" font-family="微软雅黑" text-anchor="middle" font-size="13px" width="162px" fill="#323232" font-weight="400" align="middle" lineHeight="125%" anchor="middle" family="微软雅黑" size="13px" weight="400" font-style="" opacity="1" y="24.375" transform="rotate(0)"><tspan id="SvgjsTspan1194" dy="16" x="91"><tspan id="SvgjsTspan1195" style="text-decoration:;">getViewName(request)</tspan></tspan></text></g></g><g id="SvgjsG1196"><path id="SvgjsPath1197" d="M352.00767543859655 786.5899267082187L352.00767543859655 828.3706284626032L352.0353762696216 828.3706284626032L352.0353762696216 870.1513302169878" stroke="#323232" stroke-width="2" fill="none" marker-end="url(#SvgjsMarker1198)"></path></g><g id="SvgjsG1200" transform="translate(166.03537626962125,870.1513302169878)"><path id="SvgjsPath1201" d="M 0 0L 372 0L 372 71L 0 71Z" stroke="rgba(50,50,50,1)" stroke-width="2" fill-opacity="1" fill="#ffffff"></path><g id="SvgjsG1202"><text id="SvgjsText1203" font-family="微软雅黑" text-anchor="middle" font-size="13px" width="352px" fill="#323232" font-weight="400" align="middle" lineHeight="125%" anchor="middle" family="微软雅黑" size="13px" weight="400" font-style="" opacity="1" y="25.875" transform="rotate(0)"><tspan id="SvgjsTspan1204" dy="16" x="186"><tspan id="SvgjsTspan1205" style="text-decoration:;">postHandle(request, response, this.handler, mv)</tspan></tspan></text></g></g><g id="SvgjsG1206"><path id="SvgjsPath1207" d="M352.0353762696216 941.1513302169867L352.0353762696216 988.2215056555848L182.235745614035 988.2215056555848L182.235745614035 1035.2916810941829" stroke="#323232" stroke-width="2" fill="none" marker-end="url(#SvgjsMarker1208)"></path></g><g id="SvgjsG1210" transform="translate(139.2357456140351,1035.2916810941829)"><path id="SvgjsPath1211" d="M 0 35L 45 0L 90 35L 45 70L 0 35Z" stroke="rgba(50,50,50,1)" stroke-width="2" fill-opacity="1" fill="#ffffff"></path><g id="SvgjsG1212"><text id="SvgjsText1213" font-family="微软雅黑" text-anchor="middle" font-size="13px" width="70px" fill="#323232" font-weight="400" align="middle" lineHeight="125%" anchor="middle" family="微软雅黑" size="13px" weight="400" font-style="" opacity="1" y="25.375" transform="rotate(0)"><tspan id="SvgjsTspan1214" dy="16" x="45"><tspan id="SvgjsTspan1215" style="text-decoration:;">EX?</tspan></tspan></text></g></g><g id="SvgjsG1216"><path id="SvgjsPath1217" d="M229.2357456140349 1070.2916810941829L259.1046283471838 1070.2916810941829L259.1046283471838 1069.5437586565092L288.9735110803325 1069.5437586565092" stroke="#323232" stroke-width="2" fill="none" marker-end="url(#SvgjsMarker1218)"></path></g><g id="SvgjsG1220" transform="translate(288.9735110803325,1038.5437586565092)"><path id="SvgjsPath1221" d="M 0 0L 367 0L 367 62L 0 62Z" stroke="rgba(50,50,50,1)" stroke-width="2" fill-opacity="1" fill="#ffffff"></path><g id="SvgjsG1222"><text id="SvgjsText1223" font-family="微软雅黑" text-anchor="middle" font-size="13px" width="347px" fill="#323232" font-weight="400" align="middle" lineHeight="125%" anchor="middle" family="微软雅黑" size="13px" weight="400" font-style="" opacity="1" y="21.375" transform="rotate(0)"><tspan id="SvgjsTspan1224" dy="16" x="183.5"><tspan id="SvgjsTspan1225" style="text-decoration:;">mv = resolveException(request, response, handler, ex)</tspan></tspan></text></g></g><g id="SvgjsG1226"><path id="SvgjsPath1227" d="M184.23574561403498 1105.2916810941829L184.23574561403498 1141.964195714064L348.2288204062787 1141.964195714064L348.2288204062787 1178.6367103339455" stroke="#323232" stroke-width="2" fill="none" marker-end="url(#SvgjsMarker1228)"></path></g><g id="SvgjsG1230" transform="translate(228.7288204062788,1178.6367103339455)"><path id="SvgjsPath1231" d="M 0 0L 239 0L 239 74L 0 74Z" stroke="rgba(50,50,50,1)" stroke-width="2" fill-opacity="1" fill="#ffffff"></path><g id="SvgjsG1232"><text id="SvgjsText1233" font-family="微软雅黑" text-anchor="middle" font-size="13px" width="219px" fill="#323232" font-weight="400" align="middle" lineHeight="125%" anchor="middle" family="微软雅黑" size="13px" weight="400" font-style="" opacity="1" y="27.375" transform="rotate(0)"><tspan id="SvgjsTspan1234" dy="16" x="119.5"><tspan id="SvgjsTspan1235" style="text-decoration:;">resolveLocale(request)</tspan></tspan></text></g></g><g id="SvgjsG1236"><path id="SvgjsPath1237" d="M348.2288204062787 1252.6367103339455L348.2288204062787 1276.7273536087998L348.09539473684237 1276.7273536087998L348.09539473684237 1300.8179968836541" stroke="#323232" stroke-width="2" fill="none" marker-end="url(#SvgjsMarker1238)"></path></g><g id="SvgjsG1240" transform="translate(206.09539473684214,1300.8179968836541)"><path id="SvgjsPath1241" d="M 0 0L 284 0L 284 73L 0 73Z" stroke="rgba(50,50,50,1)" stroke-width="2" fill-opacity="1" fill="#ffffff"></path><g id="SvgjsG1242"><text id="SvgjsText1243" font-family="微软雅黑" text-anchor="middle" font-size="13px" width="264px" fill="#323232" font-weight="400" align="middle" lineHeight="125%" anchor="middle" family="微软雅黑" size="13px" weight="400" font-style="" opacity="1" y="26.875" transform="rotate(0)"><tspan id="SvgjsTspan1244" dy="16" x="142"><tspan id="SvgjsTspan1245" style="text-decoration:;">resolveViewName(viewName, locale)</tspan></tspan></text></g></g><g id="SvgjsG1246" transform="translate(168.45211988304087,1565.0986986380412)"><path id="SvgjsPath1247" d="M 0 0L 359 0L 359 70L 0 70Z" stroke="rgba(50,50,50,1)" stroke-width="2" fill-opacity="1" fill="#ffffff"></path><g id="SvgjsG1248"><text id="SvgjsText1249" font-family="微软雅黑" text-anchor="middle" font-size="13px" width="339px" fill="#323232" font-weight="400" align="middle" lineHeight="125%" anchor="middle" family="微软雅黑" size="13px" weight="400" font-style="" opacity="1" y="25.375" transform="rotate(0)"><tspan id="SvgjsTspan1250" dy="16" x="179.5"><tspan id="SvgjsTspan1251" style="text-decoration:;">afterCompletion(request, response,handler, ex)</tspan></tspan></text></g></g><g id="SvgjsG1252"><path id="SvgjsPath1253" d="M472.4735110803325 1100.5437586565092L472.4735110803325 1139.5902344952274L348.22882040627877 1139.5902344952274L348.22882040627877 1178.6367103339455" stroke="#323232" stroke-width="2" fill="none" marker-end="url(#SvgjsMarker1254)"></path></g><g id="SvgjsG1256"><path id="SvgjsPath1257" d="M348.0953947368423 1373.8179968836541L348.0953947368423 1400.17764600646L348.0573830409359 1400.17764600646L348.0573830409359 1426.537295129266" stroke="#323232" stroke-width="2" fill="none" marker-end="url(#SvgjsMarker1258)"></path></g><g id="SvgjsG1260" transform="translate(172.55738304093552,1426.537295129266)"><path id="SvgjsPath1261" d="M 0 0L 351.00000000000045 0L 351.00000000000045 80L 0 80Z" stroke="rgba(50,50,50,1)" stroke-width="2" fill-opacity="1" fill="#ffffff"></path><g id="SvgjsG1262"><text id="SvgjsText1263" font-family="微软雅黑" text-anchor="middle" font-size="13px" width="332px" fill="#323232" font-weight="400" align="middle" lineHeight="125%" anchor="middle" family="微软雅黑" size="13px" weight="400" font-style="" opacity="1" y="30.375" transform="rotate(0)"><tspan id="SvgjsTspan1264" dy="16" x="176"><tspan id="SvgjsTspan1265" style="text-decoration:;">render(mv.getModelInternal(), request, response)</tspan></tspan></text></g></g><g id="SvgjsG1266"><path id="SvgjsPath1267" d="M348.0573830409359 1506.537295129266L348.0573830409359 1535.8179968836537L347.952119883041 1535.8179968836537L347.952119883041 1565.0986986380412" stroke="#323232" stroke-width="2" fill="none" marker-end="url(#SvgjsMarker1268)"></path></g><g id="SvgjsG1270"><path id="SvgjsPath1271" d="M347.95211988304095 1635.0986986380412L347.95211988304095 1677.6074705678664L162.30874395350494 1677.6074705678664L162.30874395350494 1720.1162424976917" stroke="#323232" stroke-width="2" fill="none" marker-end="url(#SvgjsMarker1272)"></path></g><g id="SvgjsG1274" transform="translate(107.0661549707603,1720.1162424976917)"><path id="SvgjsPath1275" d="M 0 35.245614035086874L 54.17251461988295 0L 108.3450292397659 35.245614035086874L 54.17251461988295 70.49122807017375L 0 35.245614035086874Z" stroke="rgba(50,50,50,1)" stroke-width="2" fill-opacity="1" fill="#ffffff"></path><g id="SvgjsG1276"><text id="SvgjsText1277" font-family="微软雅黑" text-anchor="middle" font-size="13px" width="89px" fill="#323232" font-weight="400" align="middle" lineHeight="125%" anchor="middle" family="微软雅黑" size="13px" weight="400" font-style="" opacity="1" y="25.620614035086874" transform="rotate(0)"><tspan id="SvgjsTspan1278" dy="16" x="54.5"><tspan id="SvgjsTspan1279" style="text-decoration:;">Concurrent?</tspan></tspan></text></g></g><g id="SvgjsG1280"><path id="SvgjsPath1281" d="M215.41118421052613 1755.3618565327786L227.0044679739514 1755.3618565327786L227.0044679739514 1756.1864179362865L238.59775173737663 1756.1864179362865" stroke="#323232" stroke-width="2" fill="none" marker-end="url(#SvgjsMarker1282)"></path></g><g id="SvgjsG1284" transform="translate(238.59775173737663,1734.8530846029528)"><path id="SvgjsPath1285" d="M 0 0L 421.9999999999999 0L 421.9999999999999 42.666666666666515L 0 42.666666666666515Z" stroke="rgba(50,50,50,1)" stroke-width="2" fill-opacity="1" fill="#ffffff"></path><g id="SvgjsG1286"><text id="SvgjsText1287" font-family="微软雅黑" text-anchor="middle" font-size="13px" width="402px" fill="#323232" font-weight="400" align="middle" lineHeight="125%" anchor="middle" family="微软雅黑" size="13px" weight="400" font-style="" opacity="1" y="11.708333333333258" transform="rotate(0)"><tspan id="SvgjsTspan1288" dy="16" x="211"><tspan id="SvgjsTspan1289" style="text-decoration:;">afterConcurrentHandlingStarted(request, response, this.handler)</tspan></tspan></text></g></g><g id="SvgjsG1290"><path id="SvgjsPath1291" d="M161.23866959064316 1790.6074705678654L161.23866959064316 1834.291681094183L161.2899161280392 1834.291681094183L161.2899161280392 1877.9758916205005" stroke="#323232" stroke-width="2" fill="none" marker-end="url(#SvgjsMarker1292)"></path></g><g id="SvgjsG1294" transform="translate(116.28991612803941,1877.9758916205005)"><path id="SvgjsPath1295" d="M 0 35L 45 0L 90 35L 45 70L 0 35Z" stroke="rgba(50,50,50,1)" stroke-width="2" fill-opacity="1" fill="#ffffff"></path><g id="SvgjsG1296"><text id="SvgjsText1297" font-family="微软雅黑" text-anchor="middle" font-size="13px" width="70px" fill="#323232" font-weight="400" align="middle" lineHeight="125%" anchor="middle" family="微软雅黑" size="13px" weight="400" font-style="" opacity="1" y="25.375" transform="rotate(0)"><tspan id="SvgjsTspan1298" dy="16" x="45"><tspan id="SvgjsTspan1299" style="text-decoration:;">multipart</tspan></tspan></text></g></g><g id="SvgjsG1300"><path id="SvgjsPath1301" d="M206.28991612803918 1912.9758916205L266.3142359912148 1912.9758916205L266.3142359912148 1912.9758916205L326.3385558543902 1912.9758916205" stroke="#323232" stroke-width="2" fill="none" marker-end="url(#SvgjsMarker1302)"></path></g><g id="SvgjsG1304" transform="translate(326.3385558543902,1886.39694425208)"><path id="SvgjsPath1305" d="M 0 0L 254.4385964912281 0L 254.4385964912281 53.15789473683981L 0 53.15789473683981Z" stroke="rgba(50,50,50,1)" stroke-width="2" fill-opacity="1" fill="#ffffff"></path><g id="SvgjsG1306"><text id="SvgjsText1307" font-family="微软雅黑" text-anchor="middle" font-size="13px" width="235px" fill="#323232" font-weight="400" align="middle" lineHeight="125%" anchor="middle" family="微软雅黑" size="13px" weight="400" font-style="" opacity="1" y="16.953947368419904" transform="rotate(0)"><tspan id="SvgjsTspan1308" dy="16" x="127.5"><tspan id="SvgjsTspan1309" style="text-decoration:;">cleanupMultipart(multipartRequest)</tspan></tspan></text></g></g><g id="SvgjsG1310"><path id="SvgjsPath1311" d="M161.2899161280392 1947.9758916205L161.2899161280392 1985.5372951292704L353.82669667590056 1985.5372951292704L353.82669667590056 2023.0986986380406" stroke="#323232" stroke-width="2" fill="none" marker-end="url(#SvgjsMarker1312)"></path></g><g id="SvgjsG1314" transform="translate(303.82669667590005,2023.0986986380406)"><path id="SvgjsPath1315" d="M 16.666666666666668 0L 83.33333333333333 0C 105.55555555555556 0 105.55555555555556 50 83.33333333333333 50L 16.666666666666668 50C -5.555555555555556 50 -5.555555555555556 0 16.666666666666668 0Z" stroke="rgba(50,50,50,1)" stroke-width="2" fill-opacity="1" fill="#ffffff"></path><g id="SvgjsG1316"><text id="SvgjsText1317" font-family="微软雅黑" text-anchor="middle" font-size="13px" width="80px" fill="#323232" font-weight="400" align="middle" lineHeight="125%" anchor="middle" family="微软雅黑" size="13px" weight="400" font-style="" opacity="1" y="15.375" transform="rotate(0)"><tspan id="SvgjsTspan1318" dy="16" x="50"><tspan id="SvgjsTspan1319" style="text-decoration:;">Response</tspan></tspan></text></g></g><g id="SvgjsG1320"><path id="SvgjsPath1321" d="M449.59775173737665 1777.5197512696193L449.59775173737665 1827.74782144506L161.2899161280392 1827.74782144506L161.2899161280392 1877.9758916205005" stroke="#323232" stroke-width="2" fill="none" marker-end="url(#SvgjsMarker1322)"></path></g><g id="SvgjsG1324"><path id="SvgjsPath1325" d="M453.5578541000043 1939.5548389889202L453.5578541000043 1985.0109793397967L353.82669667590056 1985.0109793397967L353.82669667590056 2023.0986986380406" stroke="#323232" stroke-width="2" fill="none" marker-end="url(#SvgjsMarker1326)"></path></g><g id="SvgjsG1328" transform="translate(673.3059210526313,126.89555921052624)"><path id="SvgjsPath1329" d="M 0 0L 320.31578947368405 0L 336.31578947368405 16L 336.31578947368405 129.385964912281L 0 129.385964912281L 0 0Z" stroke="none" fill-opacity="1" fill="#ffffaa"></path><path id="SvgjsPath1330" d="M 320.31578947368405 0L 320.31578947368405 16L 336.31578947368405 16Z" stroke="none" fill-opacity="1" fill="#cdcdcd"></path><path id="SvgjsPath1331" d="M 0 0L 320.31578947368405 0L 336.31578947368405 16L 336.31578947368405 129.385964912281L 0 129.385964912281L 0 0Z" stroke="none" fill="none"></path><g id="SvgjsG1332"><text id="SvgjsText1333" font-family="微软雅黑" text-anchor="start" font-size="13px" width="317px" fill="#323232" font-weight="400" align="top" lineHeight="125%" anchor="start" family="微软雅黑" size="13px" weight="400" font-style="" opacity="1" y="8.375" transform="rotate(0)"><tspan id="SvgjsTspan1334" dy="16" x="10"><tspan id="SvgjsTspan1335" style="text-decoration:;">检测当前请求是否是文件上传，如果是文件上传，则进</tspan></tspan><tspan id="SvgjsTspan1336" dy="16" x="10"><tspan id="SvgjsTspan1337" style="text-decoration:;">行解析。</tspan></tspan></text></g></g><g id="SvgjsG1338" transform="translate(676.1960410895662,272.0571473915048)"><path id="SvgjsPath1339" d="M 0 0L 320.31578947368405 0L 336.31578947368405 16L 336.31578947368405 129.385964912281L 0 129.385964912281L 0 0Z" stroke="none" fill-opacity="1" fill="#ffffaa"></path><path id="SvgjsPath1340" d="M 320.31578947368405 0L 320.31578947368405 16L 336.31578947368405 16Z" stroke="none" fill-opacity="1" fill="#cdcdcd"></path><path id="SvgjsPath1341" d="M 0 0L 320.31578947368405 0L 336.31578947368405 16L 336.31578947368405 129.385964912281L 0 129.385964912281L 0 0Z" stroke="none" fill="none"></path><g id="SvgjsG1342"><text id="SvgjsText1343" font-family="微软雅黑" text-anchor="start" font-size="13px" width="317px" fill="#323232" font-weight="400" align="top" lineHeight="125%" anchor="start" family="微软雅黑" size="13px" weight="400" font-style="" opacity="1" y="8.375" transform="rotate(0)"><tspan id="SvgjsTspan1344" dy="16" x="10"><tspan id="SvgjsTspan1345" style="text-decoration:;">遍历所有的HandlerMapping，以获取</tspan></tspan><tspan id="SvgjsTspan1346" dy="16" x="10"><tspan id="SvgjsTspan1347" style="text-decoration:;">HandlerExecutionChain对象。</tspan></tspan></text></g></g><g id="SvgjsG1348" transform="translate(673.1946977130153,438.3729368651891)"><path id="SvgjsPath1349" d="M 0 0L 265.8137521964991 0L 281.8137521964991 16L 281.8137521964991 76.71560480147764L 0 76.71560480147764L 0 0Z" stroke="none" fill-opacity="1" fill="#ffffaa"></path><path id="SvgjsPath1350" d="M 265.8137521964991 0L 265.8137521964991 16L 281.8137521964991 16Z" stroke="none" fill-opacity="1" fill="#cdcdcd"></path><path id="SvgjsPath1351" d="M 0 0L 265.8137521964991 0L 281.8137521964991 16L 281.8137521964991 76.71560480147764L 0 76.71560480147764L 0 0Z" stroke="none" fill="none"></path><g id="SvgjsG1352"><text id="SvgjsText1353" font-family="微软雅黑" text-anchor="start" font-size="13px" width="262px" fill="#323232" font-weight="400" align="top" lineHeight="125%" anchor="start" family="微软雅黑" size="13px" weight="400" font-style="" opacity="1" y="8.375" transform="rotate(0)"><tspan id="SvgjsTspan1354" dy="16" x="10"><tspan id="SvgjsTspan1355" style="text-decoration:;">触发HandlerInterceptor的preHandle()方法。</tspan></tspan></text></g></g><g id="SvgjsG1356" transform="translate(673.4920037899448,572.0571473915054)"><path id="SvgjsPath1357" d="M 0 0L 265.8137521964991 0L 281.8137521964991 16L 281.8137521964991 76.71560480147764L 0 76.71560480147764L 0 0Z" stroke="none" fill-opacity="1" fill="#ffffaa"></path><path id="SvgjsPath1358" d="M 265.8137521964991 0L 265.8137521964991 16L 281.8137521964991 16Z" stroke="none" fill-opacity="1" fill="#cdcdcd"></path><path id="SvgjsPath1359" d="M 0 0L 265.8137521964991 0L 281.8137521964991 16L 281.8137521964991 76.71560480147764L 0 76.71560480147764L 0 0Z" stroke="none" fill="none"></path><g id="SvgjsG1360"><text id="SvgjsText1361" font-family="微软雅黑" text-anchor="start" font-size="13px" width="262px" fill="#323232" font-weight="400" align="top" lineHeight="125%" anchor="start" family="微软雅黑" size="13px" weight="400" font-style="" opacity="1" y="8.375" transform="rotate(0)"><tspan id="SvgjsTspan1362" dy="16" x="10"><tspan id="SvgjsTspan1363" style="text-decoration:;">执行真正的handler，并返回MV。</tspan></tspan></text></g></g><g id="SvgjsG1364" transform="translate(673.4193364407151,715.215042128348)"><path id="SvgjsPath1365" d="M 0 0L 265.8137521964991 0L 281.8137521964991 16L 281.8137521964991 76.71560480147764L 0 76.71560480147764L 0 0Z" stroke="none" fill-opacity="1" fill="#ffffaa"></path><path id="SvgjsPath1366" d="M 265.8137521964991 0L 265.8137521964991 16L 281.8137521964991 16Z" stroke="none" fill-opacity="1" fill="#cdcdcd"></path><path id="SvgjsPath1367" d="M 0 0L 265.8137521964991 0L 281.8137521964991 16L 281.8137521964991 76.71560480147764L 0 76.71560480147764L 0 0Z" stroke="none" fill="none"></path><g id="SvgjsG1368"><text id="SvgjsText1369" font-family="微软雅黑" text-anchor="start" font-size="13px" width="262px" fill="#323232" font-weight="400" align="top" lineHeight="125%" anchor="start" family="微软雅黑" size="13px" weight="400" font-style="" opacity="1" y="8.375" transform="rotate(0)"><tspan id="SvgjsTspan1370" dy="16" x="10"><tspan id="SvgjsTspan1371" style="text-decoration:;">从Request中获取视图名称。</tspan></tspan></text></g></g></svg>